<?xml version="1.0" encoding="utf-8"?>
<!-- Generator: Adobe Illustrator 24.0.1, SVG Export Plug-In . SVG Version: 6.00 Build 0)  -->
<svg version="1.1" id="Layer_1" xmlns="http://www.w3.org/2000/svg" xmlns:xlink="http://www.w3.org/1999/xlink" x="0px" y="0px"
	 viewBox="0 0 360 288" style="enable-background:new 0 0 360 288;" xml:space="preserve">
<style type="text/css">
	.st0{fill:#2A3C90;}
	.st1{fill:#FFFFFF;}
</style>
<rect class="st0" width="360" height="288"/>
<g>
	<path class="st1" d="M181.87,122.61h-4.29l-5.58-6.4h-3.47v6.4h-3.61v-19.17c3.04,0,6.07,0.03,9.11,0.03
		c4.51,0.03,6.89,3.04,6.89,6.34c0,2.63-1.2,5.28-4.84,6.02l5.8,6.54V122.61z M168.52,106.84v6.13h5.5c2.3,0,3.28-1.53,3.28-3.06
		s-1.01-3.06-3.28-3.06H168.52z"/>
	<path class="st1" d="M197.61,122.61h-14.33c0-6.37,0-12.77,0-19.14h14.33v3.5h-10.75v4.4h10.36v3.36h-10.36v4.32h10.75V122.61z"/>
	<path class="st1" d="M213.44,122.64v-7.74h-9.41v7.74h-3.61V103.5h3.61v8.07h9.41v-8.07h3.58v19.14H213.44z"/>
	<path class="st1" d="M239.23,113.15c-0.05,4.95-3.09,9.9-9.82,9.9s-9.84-4.84-9.84-9.87s3.23-10.09,9.84-10.09
		C236,103.09,239.28,108.15,239.23,113.15z M223.12,113.24c0.08,3.14,1.78,6.51,6.29,6.51s6.21-3.39,6.26-6.54
		c0.05-3.23-1.75-6.84-6.26-6.84S223.04,110.01,223.12,113.24z"/>
	<path class="st1" d="M257.43,109.02c0,1.48-0.71,2.9-2.49,3.69c2.24,0.68,3.06,3.06,3.06,4.27c0,4.27-3.2,5.63-7.16,5.63
		c-3.04,0-6.04,0-9.08,0v-19.14c3.01,0,6.04,0,9.08,0C254.62,103.47,257.43,105.17,257.43,109.02z M245.32,111.16h5.52
		c2.27,0,3.01-0.96,3.01-2.05c0-0.88-0.71-2.35-3.01-2.35h-5.52V111.16z M245.32,119.25h5.52c1.48,0,3.58-0.49,3.58-2.3
		c0-1.72-2.11-2.63-3.58-2.63h-5.52V119.25z"/>
	<path class="st1" d="M279.66,113.15c-0.05,4.95-3.09,9.9-9.82,9.9s-9.84-4.84-9.84-9.87s3.23-10.09,9.84-10.09
		C276.43,103.09,279.71,108.15,279.66,113.15z M263.55,113.24c0.08,3.14,1.78,6.51,6.29,6.51s6.21-3.39,6.26-6.54
		c0.05-3.23-1.75-6.84-6.26-6.84S263.47,110.01,263.55,113.24z"/>
	<path class="st1" d="M286.14,106.75h-6.07v-3.28c5.52,0,10.2,0,15.75,0v3.28h-6.07v15.86h-3.61V106.75z"/>
	<path class="st1" d="M311.04,122.64v-7.74h-9.41v7.74h-3.61V103.5h3.61v8.07h9.41v-8.07h3.58v19.14H311.04z"/>
</g>
<g>
	<path class="st1" d="M179.11,143.9H169.1l-1.64,3.61h-3.91l8.59-19.14h3.94l8.59,19.14h-3.94L179.11,143.9z M174.1,132.39
		l-3.55,8.15h7.11L174.1,132.39z"/>
	<path class="st1" d="M190.18,128.37v15.8h9.84v3.34h-13.45v-19.14H190.18z"/>
	<path class="st1" d="M206.17,128.37v15.8h9.84v3.34h-13.45v-19.14H206.17z"/>
	<path class="st1" d="M218.58,147.51v-19.14h3.58v19.14H218.58z"/>
	<path class="st1" d="M239.83,147.51H225.5c0-6.37,0-12.77,0-19.14h14.33v3.5h-10.75v4.4h10.36v3.36h-10.36v4.32h10.75V147.51z"/>
	<path class="st1" d="M259.46,137.78c0.08,4.84-2.87,9.73-9.57,9.73c-2.35,0-5.17,0-7.52,0v-19.14c2.35,0,5.17,0,7.52,0
		C256.45,128.37,259.37,133.04,259.46,137.78z M245.95,144.04h3.94c4.35,0,6.07-3.17,5.99-6.29c-0.08-2.98-1.83-5.96-5.99-5.96
		h-3.94V144.04z"/>
</g>
<g>
	<path class="st1" d="M175.28,173.78h-3.75l-7.96-19.22h4.05l5.77,14.9l5.8-14.9h4.05L175.28,173.78z"/>
	<path class="st1" d="M199.72,173.7h-14.33c0-6.37,0-12.77,0-19.14h14.33v3.5h-10.75v4.4h10.36v3.36h-10.36v4.32h10.75V173.7z"/>
	<path class="st1" d="M215.66,154.53h3.61v19.17h-2.24v0.03l-10.06-12.93v12.91h-3.61v-19.14h2.93l9.38,11.87V154.53z"/>
	<path class="st1" d="M227.52,157.84h-6.07v-3.28c5.52,0,10.2,0,15.75,0v3.28h-6.07v15.86h-3.61V157.84z"/>
	<path class="st1" d="M256.75,154.58v10.96c0,5.66-3.47,8.56-8.29,8.56c-4.59,0-8.5-2.79-8.5-8.56v-10.96h3.58v10.96
		c0,3.45,1.97,5.28,4.95,5.28s4.68-2,4.68-5.28v-10.96H256.75z"/>
	<path class="st1" d="M277.25,173.7h-4.29l-5.58-6.4h-3.47v6.4h-3.61v-19.17c3.04,0,6.07,0.03,9.11,0.03
		c4.51,0.03,6.89,3.04,6.89,6.34c0,2.63-1.2,5.28-4.84,6.02l5.8,6.54V173.7z M263.91,157.92v6.13h5.5c2.3,0,3.28-1.53,3.28-3.06
		s-1.01-3.06-3.28-3.06H263.91z"/>
	<path class="st1" d="M293,173.7h-14.33c0-6.37,0-12.77,0-19.14H293v3.5h-10.75v4.4h10.36v3.36h-10.36v4.32H293V173.7z"/>
	<path class="st1" d="M308.17,159.18c-0.66-1.09-2.46-2.13-4.54-2.13c-2.68,0-3.96,1.12-3.96,2.54c0,1.67,1.97,2.13,4.27,2.41
		c3.99,0.49,7.71,1.53,7.71,6.1c0,4.27-3.77,6.1-8.04,6.1c-3.91,0-6.92-1.2-8.34-4.7l3.01-1.56c0.85,2.11,3.06,3.04,5.39,3.04
		c2.27,0,4.4-0.79,4.4-2.87c0-1.8-1.89-2.54-4.43-2.82c-3.91-0.46-7.52-1.5-7.52-5.8c0-3.94,3.88-5.55,7.41-5.58
		c2.98,0,6.07,0.85,7.52,3.8L308.17,159.18z"/>
</g>
<g>
	<path class="st1" d="M166.77,182.69l1.74-2.71H170v0.06l-2.61,3.79v2.71h-1.24v-2.71l-2.52-3.79v-0.06h1.47L166.77,182.69z"/>
	<path class="st1" d="M176.99,183.3c-0.02,1.7-1.06,3.39-3.36,3.39s-3.37-1.66-3.37-3.38s1.11-3.46,3.37-3.46
		C175.88,179.85,177.01,181.58,176.99,183.3z M171.47,183.32c0.03,1.08,0.61,2.23,2.15,2.23s2.13-1.16,2.15-2.24
		c0.02-1.11-0.6-2.34-2.15-2.34S171.44,182.22,171.47,183.32z"/>
	<path class="st1" d="M183.65,179.99v3.76c0,1.94-1.19,2.93-2.84,2.93c-1.57,0-2.91-0.96-2.91-2.93v-3.76h1.23v3.76
		c0,1.18,0.67,1.81,1.7,1.81c1.02,0,1.6-0.68,1.6-1.81v-3.76H183.65z"/>
	<path class="st1" d="M190.67,186.54h-1.47l-1.91-2.19h-1.19v2.19h-1.24v-6.57c1.04,0,2.08,0.01,3.12,0.01
		c1.55,0.01,2.36,1.04,2.36,2.17c0,0.9-0.41,1.81-1.66,2.06l1.99,2.24V186.54z M186.1,181.13v2.1h1.88c0.79,0,1.12-0.52,1.12-1.05
		s-0.35-1.05-1.12-1.05H186.1z"/>
	<path class="st1" d="M197.94,181.58c-0.44-0.42-1.1-0.66-1.67-0.66c-1.41,0-2.26,1.07-2.26,2.42c0,1.08,0.63,2.19,2.26,2.19
		c0.52,0,0.96-0.11,1.48-0.52v-1.16h-1.68v-1.11h2.81v2.76c-0.65,0.74-1.46,1.18-2.61,1.18c-2.46,0-3.47-1.62-3.47-3.34
		c0-1.85,1.15-3.55,3.47-3.55c0.88,0,1.76,0.34,2.44,1L197.94,181.58z"/>
	<path class="st1" d="M204.56,185.3h-3.43l-0.56,1.24h-1.34l2.94-6.56h1.35l2.94,6.56h-1.35L204.56,185.3z M202.84,181.36
		l-1.22,2.79h2.44L202.84,181.36z"/>
	<path class="st1" d="M207.64,181.1h-2.08v-1.13c1.89,0,3.49,0,5.4,0v1.13h-2.08v5.43h-1.24V181.1z"/>
	<path class="st1" d="M216.59,186.54h-4.91c0-2.18,0-4.38,0-6.56h4.91v1.2h-3.68v1.51h3.55v1.15h-3.55v1.48h3.68V186.54z"/>
	<path class="st1" d="M224.72,186.54h-1.05l-0.81-2.06l-0.69-2.07l-0.68,2.09l-0.8,2.04h-1.05l-2.41-6.56h1.39l1.55,4.73l1.59-4.73
		h0.81l1.64,4.73l1.5-4.73h1.39L224.72,186.54z"/>
	<path class="st1" d="M232.5,185.3h-3.43l-0.56,1.24h-1.34l2.94-6.56h1.35l2.94,6.56h-1.35L232.5,185.3z M230.78,181.36l-1.22,2.79
		H232L230.78,181.36z"/>
	<path class="st1" d="M236.64,182.69l1.74-2.71h1.49v0.06l-2.61,3.79v2.71h-1.24v-2.71l-2.52-3.79v-0.06h1.47L236.64,182.69z"/>
	<path class="st1" d="M244,181.1h-2.08v-1.13c1.89,0,3.49,0,5.4,0v1.13h-2.08v5.43H244V181.1z"/>
	<path class="st1" d="M254.51,183.3c-0.02,1.7-1.06,3.39-3.36,3.39s-3.37-1.66-3.37-3.38s1.11-3.46,3.37-3.46
		C253.4,179.85,254.53,181.58,254.51,183.3z M248.99,183.32c0.03,1.08,0.61,2.23,2.15,2.23s2.13-1.16,2.15-2.24
		c0.02-1.11-0.6-2.34-2.15-2.34S248.96,182.22,248.99,183.32z"/>
	<path class="st1" d="M259,181.1h-2.08v-1.13c1.89,0,3.49,0,5.4,0v1.13h-2.08v5.43H259V181.1z"/>
	<path class="st1" d="M267.54,186.55v-2.65h-3.22v2.65h-1.24v-6.56h1.24v2.76h3.22v-2.76h1.23v6.56H267.54z"/>
	<path class="st1" d="M274.82,186.54h-4.91c0-2.18,0-4.38,0-6.56h4.91v1.2h-3.68v1.51h3.55v1.15h-3.55v1.48h3.68V186.54z"/>
	<path class="st1" d="M284.74,186.54h-1.05l-0.81-2.06l-0.69-2.07l-0.68,2.09l-0.8,2.04h-1.05l-2.41-6.56h1.39l1.55,4.73l1.59-4.73
		h0.81l1.64,4.73l1.5-4.73h1.39L284.74,186.54z"/>
	<path class="st1" d="M294.31,183.3c-0.02,1.7-1.06,3.39-3.36,3.39s-3.37-1.66-3.37-3.38s1.11-3.46,3.37-3.46
		C293.2,179.85,294.33,181.58,294.31,183.3z M288.79,183.32c0.03,1.08,0.61,2.23,2.15,2.23s2.13-1.16,2.15-2.24
		c0.02-1.11-0.6-2.34-2.15-2.34S288.76,182.22,288.79,183.32z"/>
	<path class="st1" d="M301.03,186.54h-1.47l-1.91-2.19h-1.19v2.19h-1.24v-6.57c1.04,0,2.08,0.01,3.12,0.01
		c1.55,0.01,2.36,1.04,2.36,2.17c0,0.9-0.41,1.81-1.66,2.06l1.99,2.24V186.54z M296.46,181.13v2.1h1.88c0.79,0,1.13-0.52,1.13-1.05
		s-0.35-1.05-1.13-1.05H296.46z"/>
	<path class="st1" d="M302.77,179.98v5.42h3.37v1.14h-4.61v-6.56H302.77z"/>
	<path class="st1" d="M312.79,183.2c0.03,1.66-0.98,3.33-3.28,3.33c-0.81,0-1.77,0-2.58,0v-6.56c0.81,0,1.77,0,2.58,0
		C311.76,179.98,312.76,181.58,312.79,183.2z M308.16,185.35h1.35c1.49,0,2.08-1.09,2.05-2.16c-0.03-1.02-0.63-2.04-2.05-2.04h-1.35
		V185.35z"/>
</g>
<g>
	<polygon class="st1" points="140.44,157.14 140.44,187.77 57,187.77 57,175.29 54.74,178.33 54.74,190.03 142.7,190.03 
		142.7,154.1 	"/>
	<polygon class="st1" points="57,100.23 140.44,100.23 140.44,128.13 142.7,125.09 142.7,97.97 54.74,97.97 54.74,149.29 57,146.25 
			"/>
	<g>
		<path class="st1" d="M113.74,172.83l-18.17-24.31h4.28c11.84,0,21.47-9.63,21.47-21.47s-9.63-21.47-21.47-21.47h-37.2v34.27
			l6.78-9.12v-18.37h30.42c8.1,0,14.69,6.59,14.69,14.69s-6.59,14.69-14.69,14.69H82.03l31.72,42.42l40.99-55.08h-8.45
			L113.74,172.83z"/>
		<polygon class="st1" points="116.89,154.34 87.16,114.52 42.7,174.34 51.14,174.34 87.17,125.86 112.67,160.02 114.35,162.27 
			118.57,156.59 130.45,140.64 127.09,140.64 		"/>
	</g>
</g>
</svg>
